<?xml version="1.0" encoding="UTF-8"?>
<svg xmlns="http://www.w3.org/2000/svg" version="1.1" viewBox="0 0 250 80">
  <!-- Generator: Adobe Illustrator 29.0.0, SVG Export Plug-In . SVG Version: 2.1.0 Build 186)  -->
  <defs>
    <style>
      .st0, .st1 {
        fill: #fff;
      }

      .st2 {
        stroke: #000;
        stroke-miterlimit: 10;
      }

      .st1 {
        font-family: MontserratAlt1-SemiBold, Montserrat-Alt1;
        font-size: 15.07px;
        font-weight: 600;
        letter-spacing: .13em;
      }

      .st3 {
        display: none;
      }

      .st4 {
        fill: #007bff;
      }
    </style>
  </defs>
  <g id="Capa_2" class="st3">
    <rect class="st2" x="-.5" y=".5" width="250" height="80"/>
  </g>
  <g id="Capa_1">
    <g>
      <g>
        <ellipse class="st4" cx="35.66" cy="40.03" rx="10.5" ry="10.45"/>
        <ellipse cx="35.74" cy="39.72" rx="6.17" ry="6.14"/>
        <ellipse class="st0" cx="40.07" cy="38.43" rx="2.53" ry="2.51"/>
        <path class="st0" d="M49.05,30.84h9.63c.76,0,1.38.61,1.38,1.37h0c0,.76-.62,1.37-1.38,1.37h-8.24c-.21,0-.4-.11-.5-.29l-1.13-2.04c-.1-.18.03-.41.24-.41Z"/>
        <path class="st0" d="M48.99,48.59h9.63c.76,0,1.38-.61,1.38-1.37h0c0-.76-.62-1.37-1.38-1.37h-8.24c-.21,0-.4.11-.5.29l-1.13,2.04c-.1.18.03.41.24.41Z"/>
        <path class="st0" d="M51.33,38.77v1.89c0,.19.15.34.34.34h11.84c.71,0,1.29-.58,1.29-1.28h0c0-.71-.58-1.28-1.29-1.28h-11.84c-.19,0-.34.15-.34.34Z"/>
        <path class="st0" d="M30.33,25.61c1.46-.42,3.01-.64,4.61-.64h18.63v-2.45c0-2.4-1.95-4.34-4.36-4.34h-14.84c-1.38,0-2.73.11-4.05.33-10.83,1.81-19.05,10.75-19.05,21.5s8.23,19.69,19.05,21.5c1.31.22,2.67.33,4.05.33h14.84c2.41,0,4.36-1.94,4.36-4.34v-2.45h-18.63c-1.6,0-3.15-.22-4.61-.64-6.54-1.87-11.3-7.61-11.3-14.4s4.76-12.53,11.3-14.4Z"/>
      </g>
      <g>
        <g>
          <path class="st0" d="M83.54,41.63c-1.63,0-3.14-.28-4.54-.85-1.4-.57-2.61-1.37-3.63-2.42-1.02-1.05-1.82-2.28-2.4-3.69-.57-1.41-.86-2.96-.86-4.65s.29-3.24.86-4.65c.57-1.41,1.38-2.64,2.41-3.69,1.03-1.05,2.25-1.85,3.65-2.42,1.4-.57,2.91-.85,4.53-.85,1.83,0,3.49.34,4.97,1.01,1.49.67,2.73,1.66,3.74,2.96l-3.16,3.08c-.7-.88-1.5-1.54-2.4-1.99-.89-.45-1.86-.67-2.91-.67-.98,0-1.89.18-2.71.53-.82.35-1.54.85-2.14,1.49-.6.64-1.07,1.4-1.4,2.28s-.5,1.85-.5,2.92.17,2.04.5,2.92c.33.88.8,1.63,1.4,2.28.6.64,1.32,1.14,2.14,1.49.82.35,1.73.53,2.71.53,1.04,0,2.01-.23,2.91-.69.89-.46,1.69-1.13,2.4-2l3.16,3.08c-1,1.3-2.25,2.3-3.74,2.98-1.49.68-3.15,1.03-5,1.03Z"/>
          <path class="st0" d="M92.07,41.24l9.37-22.44h4.82l9.46,22.44h-5.12l-7.74-19.81h1.96l-7.74,19.81h-5ZM96.8,36.43l1.24-3.94h10.91l1.27,3.94h-13.41Z"/>
          <path class="st0" d="M117.92,41.24v-22.44h4.04l8.98,15.83h-2.14l8.8-15.83h4.07v22.44h-4.55l-.06-14.97h.9l-7.11,12.56h-2.17l-7.2-12.56h.99v14.97h-4.55Z"/>
          <path class="st0" d="M143.93,41.24l9.37-22.44h4.82l9.46,22.44h-5.12l-7.74-19.81h1.96l-7.74,19.81h-5ZM148.66,36.43l1.24-3.94h10.91l1.27,3.94h-13.41Z"/>
          <path class="st0" d="M179.57,41.63c-1.63,0-3.14-.28-4.54-.85-1.4-.57-2.61-1.37-3.63-2.42-1.02-1.05-1.82-2.28-2.4-3.69s-.86-2.96-.86-4.65.29-3.24.86-4.65,1.38-2.64,2.41-3.69,2.25-1.85,3.65-2.42c1.4-.57,2.91-.85,4.54-.85,1.83,0,3.48.34,4.97,1.01,1.49.67,2.73,1.66,3.74,2.96l-3.16,3.08c-.7-.88-1.5-1.54-2.4-1.99s-1.86-.67-2.91-.67c-.99,0-1.89.18-2.71.53-.82.35-1.54.85-2.14,1.49-.6.64-1.07,1.4-1.4,2.28-.33.88-.5,1.85-.5,2.92s.17,2.04.5,2.92c.33.88.8,1.63,1.4,2.28s1.32,1.14,2.14,1.49c.82.35,1.73.53,2.71.53,1.04,0,2.01-.23,2.91-.69.89-.46,1.69-1.13,2.4-2l3.16,3.08c-1,1.3-2.25,2.3-3.74,2.98-1.49.68-3.15,1.03-5,1.03Z"/>
          <path class="st0" d="M191.29,41.24v-22.44h4.91v22.44h-4.91ZM195.81,32.04v-4.39h10.31v4.39h-10.31ZM205.76,41.24v-22.44h4.88v22.44h-4.88Z"/>
          <path class="st0" d="M225.89,41.63c-1.67,0-3.2-.29-4.61-.87-1.41-.58-2.63-1.39-3.68-2.44-1.04-1.05-1.85-2.27-2.43-3.69s-.86-2.95-.86-4.62.29-3.23.86-4.63c.57-1.4,1.38-2.62,2.43-3.67,1.04-1.05,2.26-1.86,3.66-2.44,1.4-.58,2.93-.87,4.59-.87s3.2.28,4.6.85c1.4.57,2.62,1.37,3.66,2.42,1.04,1.05,1.85,2.28,2.43,3.69.57,1.41.86,2.96.86,4.65s-.29,3.21-.86,4.63c-.57,1.42-1.38,2.66-2.43,3.7-1.04,1.05-2.27,1.85-3.66,2.42-1.4.57-2.92.85-4.57.85ZM225.86,37.24c.94,0,1.81-.18,2.61-.53s1.49-.85,2.09-1.51c.6-.65,1.07-1.41,1.4-2.28.33-.87.5-1.83.5-2.9s-.17-2.04-.5-2.9c-.33-.87-.8-1.62-1.4-2.28-.6-.65-1.3-1.15-2.09-1.51s-1.66-.53-2.61-.53-1.82.18-2.62.53c-.8.35-1.5.85-2.09,1.51-.59.65-1.05,1.41-1.39,2.28-.33.87-.5,1.83-.5,2.9s.17,2.04.5,2.9c.33.87.79,1.62,1.39,2.28.59.65,1.29,1.15,2.09,1.51.8.35,1.68.53,2.62.53Z"/>
        </g>
        <text class="st1" transform="translate(84.03 62.04) scale(.94 1)"><tspan x="0" y="0">DIGITAL STUDIO</tspan></text>
      </g>
    </g>
  </g>
</svg>