<?xml version="1.0" encoding="UTF-8"?>
<svg xmlns="http://www.w3.org/2000/svg" version="1.1" viewBox="0 0 250 80">
  <!-- Generator: Adobe Illustrator 29.0.0, SVG Export Plug-In . SVG Version: 2.1.0 Build 186)  -->
  <defs>
    <style>
      .st0, .st1 {
        fill: #fff;
      }

      .st2 {
        display: none;
      }

      .st1 {
        font-family: MontserratAlt1-SemiBold, Montserrat-Alt1;
        font-size: 16.53px;
        font-weight: 600;
        letter-spacing: .12em;
      }
    </style>
  </defs>
  <g id="Capa_2" class="st2">
    <rect width="250" height="80"/>
  </g>
  <g id="Capa_1">
    <g>
      <ellipse class="st0" cx="27.05" cy="40.02" rx="11.52" ry="11.46"/>
      <ellipse cx="27.14" cy="39.67" rx="6.77" ry="6.73"/>
      <ellipse class="st0" cx="31.9" cy="38.26" rx="2.77" ry="2.76"/>
      <path class="st0" d="M41.74,29.93h10.57c.83,0,1.51.67,1.51,1.5h0c0,.83-.68,1.5-1.51,1.5h-9.04c-.23,0-.44-.12-.55-.32l-1.24-2.23c-.11-.2.03-.45.27-.45Z"/>
      <path class="st0" d="M41.68,49.42h10.57c.83,0,1.51-.67,1.51-1.5h0c0-.83-.68-1.5-1.51-1.5h-9.04c-.23,0-.44.12-.55.32l-1.24,2.23c-.11.2.03.45.27.45Z"/>
      <path class="st0" d="M44.25,38.64v2.07c0,.21.17.37.37.37h12.99c.78,0,1.42-.63,1.42-1.41h0c0-.78-.63-1.41-1.42-1.41h-12.99c-.21,0-.37.17-.37.37Z"/>
      <path class="st0" d="M21.2,24.2c1.6-.46,3.3-.7,5.06-.7h20.45v-2.69c0-2.63-2.14-4.76-4.79-4.76h-16.28c-1.51,0-3,.13-4.44.37C9.32,18.39.29,28.2.29,40s9.03,21.61,20.91,23.59c1.44.24,2.93.37,4.44.37h16.28c2.64,0,4.79-2.13,4.79-4.76v-2.69h-20.45c-1.76,0-3.46-.25-5.06-.7-7.18-2.05-12.4-8.35-12.4-15.8s5.23-13.75,12.4-15.8Z"/>
      <g>
        <g>
          <path class="st0" d="M79.59,41.77c-1.79,0-3.44-.31-4.98-.93-1.53-.62-2.86-1.51-3.98-2.66-1.12-1.15-2-2.5-2.63-4.04-.63-1.55-.94-3.25-.94-5.1s.31-3.55.94-5.1c.63-1.55,1.51-2.9,2.65-4.04,1.14-1.15,2.47-2.03,4-2.66,1.53-.62,3.19-.93,4.98-.93,2.01,0,3.82.37,5.46,1.11,1.63.74,3,1.82,4.1,3.25l-3.47,3.38c-.77-.96-1.65-1.69-2.63-2.18-.98-.49-2.04-.74-3.19-.74-1.08,0-2.07.19-2.98.58s-1.69.93-2.35,1.64c-.66.7-1.17,1.54-1.54,2.5-.36.96-.55,2.03-.55,3.2s.18,2.24.55,3.2c.36.96.88,1.79,1.54,2.5.66.7,1.44,1.25,2.35,1.63s1.9.58,2.98.58c1.15,0,2.21-.25,3.19-.76.98-.5,1.86-1.24,2.63-2.2l3.47,3.38c-1.1,1.43-2.47,2.52-4.1,3.27-1.63.75-3.46,1.12-5.49,1.12Z"/>
          <path class="st0" d="M88.95,41.35l10.28-24.62h5.29l10.38,24.62h-5.62l-8.5-21.73h2.15l-8.5,21.73h-5.49ZM94.14,36.07l1.36-4.33h11.97l1.39,4.33h-14.71Z"/>
          <path class="st0" d="M117.32,41.35v-24.62h4.43l9.85,17.37h-2.35l9.65-17.37h4.46v24.62h-4.99l-.07-16.42h.99l-7.8,13.79h-2.38l-7.9-13.79h1.09v16.42h-4.99Z"/>
          <path class="st0" d="M145.85,41.35l10.28-24.62h5.29l10.38,24.62h-5.62l-8.5-21.73h2.15l-8.5,21.73h-5.49ZM151.04,36.07l1.36-4.33h11.97l1.39,4.33h-14.71Z"/>
          <path class="st0" d="M184.97,41.77c-1.79,0-3.44-.31-4.98-.93-1.53-.62-2.86-1.51-3.98-2.66s-2-2.5-2.63-4.04c-.63-1.55-.94-3.25-.94-5.1s.31-3.55.94-5.1c.63-1.55,1.51-2.9,2.65-4.04,1.13-1.15,2.47-2.03,4-2.66,1.53-.62,3.19-.93,4.98-.93,2.01,0,3.82.37,5.46,1.11,1.63.74,3,1.82,4.1,3.25l-3.47,3.38c-.77-.96-1.65-1.69-2.63-2.18-.98-.49-2.04-.74-3.19-.74-1.08,0-2.07.19-2.98.58-.9.39-1.69.93-2.35,1.64s-1.17,1.54-1.54,2.5c-.36.96-.55,2.03-.55,3.2s.18,2.24.55,3.2c.36.96.88,1.79,1.54,2.5.66.7,1.44,1.25,2.35,1.63.9.39,1.9.58,2.98.58,1.15,0,2.21-.25,3.19-.76.98-.5,1.86-1.24,2.63-2.2l3.47,3.38c-1.1,1.43-2.47,2.52-4.1,3.27-1.63.75-3.46,1.12-5.49,1.12Z"/>
          <path class="st0" d="M197.83,41.35v-24.62h5.39v24.62h-5.39ZM202.79,31.25v-4.82h11.31v4.82h-11.31ZM213.7,41.35v-24.62h5.36v24.62h-5.36Z"/>
          <path class="st0" d="M235.79,41.77c-1.83,0-3.52-.32-5.06-.95-1.54-.63-2.89-1.52-4.03-2.67-1.15-1.15-2.03-2.5-2.66-4.04-.63-1.55-.94-3.24-.94-5.06s.31-3.55.94-5.08c.63-1.54,1.52-2.88,2.66-4.03,1.15-1.15,2.49-2.04,4.02-2.67,1.53-.63,3.21-.95,5.04-.95s3.51.31,5.04.93,2.87,1.51,4.02,2.66c1.15,1.15,2.03,2.5,2.66,4.04.63,1.55.94,3.25.94,5.1s-.31,3.52-.94,5.08c-.63,1.56-1.52,2.91-2.66,4.06-1.15,1.15-2.49,2.03-4.02,2.66-1.53.62-3.2.93-5.01.93ZM235.75,36.95c1.04,0,1.99-.19,2.86-.58.87-.39,1.64-.94,2.3-1.65.66-.72,1.17-1.55,1.54-2.5.36-.95.55-2.01.55-3.18s-.18-2.23-.55-3.18c-.36-.95-.88-1.78-1.54-2.5s-1.43-1.27-2.3-1.65c-.87-.39-1.82-.58-2.86-.58s-2,.19-2.88.58-1.65.94-2.3,1.65-1.16,1.55-1.52,2.5c-.36.95-.55,2.01-.55,3.18s.18,2.23.55,3.18c.36.95.87,1.78,1.52,2.5.65.71,1.42,1.27,2.3,1.65s1.84.58,2.88.58Z"/>
        </g>
        <text class="st1" transform="translate(80.13 64.16) scale(.94 1)"><tspan x="0" y="0">DIGITAL STUDIO</tspan></text>
      </g>
    </g>
  </g>
</svg>