<?xml version="1.0" encoding="UTF-8"?>
<svg xmlns="http://www.w3.org/2000/svg" xmlns:xlink="http://www.w3.org/1999/xlink" viewBox="0 0 200 200">
  <defs>
    <clipPath id="clippath">
      <rect x="117.45" y="100.37" width="44" height="41.85" rx="9.7" ry="9.7" fill="none"/>
    </clipPath>
  </defs>
  <g id="Capa_2" data-name="Capa 2">
    <rect width="200" height="200" fill="#007bff"/>
  </g>
  <g id="Capa_1" data-name="Capa 1">
    <g>
      <g>
        <ellipse cx="33.69" cy="65.46" rx="7.8" ry="7.76" fill="#fff"/>
        <g>
          <path d="M33.75,69.29c-2.25,0-4.08-1.82-4.08-4.06s1.83-4.06,4.08-4.06,4.08,1.82,4.08,4.06-1.83,4.06-4.08,4.06Z"/>
          <path d="M33.75,61.67c1.98,0,3.58,1.6,3.58,3.56s-1.61,3.56-3.58,3.56-3.58-1.6-3.58-3.56,1.61-3.56,3.58-3.56M33.75,60.67c-2.53,0-4.58,2.04-4.58,4.56s2.05,4.56,4.58,4.56,4.58-2.04,4.58-4.56-2.05-4.56-4.58-4.56h0Z"/>
        </g>
        <ellipse cx="36.97" cy="64.27" rx="1.88" ry="1.87" fill="#fff"/>
        <path d="M43.64,58.63h7.15c.57,0,1.02.46,1.02,1.02h0c0,.56-.46,1.02-1.02,1.02h-6.12c-.15,0-.3-.08-.37-.22l-.84-1.51c-.08-.14.02-.31.18-.31Z" fill="#fff"/>
        <path d="M43.59,71.82h7.15c.57,0,1.02-.46,1.02-1.02h0c0-.56-.46-1.02-1.02-1.02h-6.12c-.15,0-.3.08-.37.22l-.84,1.51c-.08.14.02.31.18.31Z" fill="#fff"/>
        <path d="M45.33,64.52v1.4c0,.14.11.25.25.25h8.79c.53,0,.96-.43.96-.95h0c0-.53-.43-.95-.96-.95h-8.79c-.14,0-.25.11-.25.25Z" fill="#fff"/>
        <path d="M29.73,54.75c1.08-.31,2.23-.48,3.42-.48h13.84v-1.82c0-1.78-1.45-3.22-3.24-3.22h-11.02c-1.03,0-2.03.08-3.01.25-8.04,1.34-14.15,7.98-14.15,15.97s6.11,14.63,14.15,15.97c.98.16,1.98.25,3.01.25h11.02c1.79,0,3.24-1.44,3.24-3.22v-1.82h-13.84c-1.19,0-2.34-.17-3.42-.48-4.86-1.39-8.4-5.65-8.4-10.7s3.54-9.31,8.4-10.7Z" fill="#fff"/>
        <g>
          <g>
            <path d="M69.26,66.65c-1.21,0-2.33-.21-3.37-.63-1.04-.42-1.94-1.02-2.7-1.8-.76-.78-1.35-1.69-1.78-2.74-.42-1.05-.64-2.2-.64-3.45s.21-2.4.64-3.45c.43-1.05,1.02-1.96,1.79-2.74s1.67-1.38,2.71-1.8c1.04-.42,2.16-.63,3.37-.63,1.36,0,2.59.25,3.69.75,1.1.5,2.03,1.23,2.78,2.2l-2.35,2.29c-.52-.65-1.12-1.14-1.78-1.48s-1.38-.5-2.16-.5c-.73,0-1.4.13-2.01.39-.61.26-1.14.63-1.59,1.11s-.79,1.04-1.04,1.69-.37,1.37-.37,2.17.12,1.52.37,2.17.59,1.21,1.04,1.69c.45.48.98.84,1.59,1.11.61.26,1.28.39,2.01.39.78,0,1.5-.17,2.16-.51.66-.34,1.26-.84,1.78-1.49l2.35,2.29c-.75.97-1.67,1.71-2.78,2.21-1.1.51-2.34.76-3.72.76Z" fill="#fff"/>
            <path d="M75.59,66.36l6.96-16.67h3.58l7.03,16.67h-3.81l-5.75-14.71h1.46l-5.75,14.71h-3.72ZM79.11,62.79l.92-2.93h8.1l.94,2.93h-9.96Z" fill="#fff"/>
            <path d="M94.8,66.36v-16.67h3l6.67,11.76h-1.59l6.54-11.76h3.02v16.67h-3.38l-.04-11.12h.67l-5.28,9.33h-1.61l-5.35-9.33h.74v11.12h-3.38Z" fill="#fff"/>
            <path d="M114.12,66.36l6.96-16.67h3.58l7.03,16.67h-3.81l-5.75-14.71h1.46l-5.75,14.71h-3.72ZM117.63,62.79l.92-2.93h8.1l.94,2.93h-9.96Z" fill="#fff"/>
            <path d="M140.6,66.65c-1.21,0-2.33-.21-3.37-.63-1.04-.42-1.94-1.02-2.7-1.8-.76-.78-1.35-1.69-1.78-2.74-.42-1.05-.64-2.2-.64-3.45s.21-2.4.64-3.45c.43-1.05,1.02-1.96,1.79-2.74s1.67-1.38,2.71-1.8c1.04-.42,2.16-.63,3.37-.63,1.36,0,2.59.25,3.69.75,1.1.5,2.03,1.23,2.78,2.2l-2.35,2.29c-.52-.65-1.12-1.14-1.78-1.48s-1.38-.5-2.16-.5c-.73,0-1.4.13-2.01.39-.61.26-1.14.63-1.59,1.11s-.79,1.04-1.04,1.69-.37,1.37-.37,2.17.12,1.52.37,2.17.59,1.21,1.04,1.69c.45.48.98.84,1.59,1.11.61.26,1.28.39,2.01.39.78,0,1.5-.17,2.16-.51.66-.34,1.26-.84,1.78-1.49l2.35,2.29c-.75.97-1.67,1.71-2.78,2.21-1.1.51-2.34.76-3.72.76Z" fill="#fff"/>
            <path d="M149.3,66.36v-16.67h3.65v16.67h-3.65ZM152.66,59.53v-3.26h7.65v3.26h-7.65ZM160.05,66.36v-16.67h3.63v16.67h-3.63Z" fill="#fff"/>
            <path d="M175,66.65c-1.24,0-2.38-.21-3.42-.64-1.04-.43-1.96-1.03-2.73-1.81-.78-.78-1.38-1.69-1.8-2.74-.42-1.05-.64-2.19-.64-3.43s.21-2.4.64-3.44c.43-1.04,1.03-1.95,1.8-2.73.78-.78,1.68-1.38,2.72-1.81,1.04-.43,2.17-.64,3.41-.64s2.38.21,3.41.63c1.04.42,1.94,1.02,2.72,1.8.78.78,1.38,1.69,1.8,2.74.43,1.05.64,2.2.64,3.45s-.21,2.38-.64,3.44c-.42,1.06-1.03,1.97-1.8,2.75-.78.78-1.68,1.38-2.72,1.8-1.04.42-2.17.63-3.39.63ZM174.98,63.38c.7,0,1.35-.13,1.94-.39.59-.26,1.11-.63,1.56-1.12.45-.48.79-1.05,1.04-1.69.25-.64.37-1.36.37-2.16s-.12-1.51-.37-2.15-.59-1.21-1.04-1.69c-.45-.48-.97-.86-1.56-1.12-.59-.26-1.23-.39-1.94-.39s-1.35.13-1.95.39c-.6.26-1.12.64-1.56,1.12-.44.48-.78,1.05-1.03,1.69s-.37,1.36-.37,2.15.12,1.51.37,2.16c.25.64.59,1.21,1.03,1.69.44.48.96.86,1.56,1.12.6.26,1.25.39,1.95.39Z" fill="#fff"/>
          </g>
          <g>
            <path d="M71.88,77.88v2.81h1.9c1.74,0,2.85-1.12,2.85-2.81s-1.12-2.81-2.85-2.81h-3.1v-1.11h3.16c2.38,0,4,1.58,4,3.92s-1.62,3.92-4,3.92h-3.16v-3.92h1.2Z" fill="#fff"/>
            <path d="M80.69,81.8v-7.84h1.2v7.84h-1.2Z" fill="#fff"/>
            <path d="M91.52,80.91c-.75.66-1.8,1-2.83,1-2.27,0-3.95-1.69-3.95-4.02s1.67-4.02,3.97-4.02c1.2,0,2.21.42,2.9,1.24l-.76.81c-.59-.63-1.27-.91-2.08-.91-1.64,0-2.81,1.2-2.81,2.88s1.17,2.88,2.8,2.88c.57,0,1.12-.12,1.61-.45v-2.5h1.16v3.09Z" fill="#fff"/>
            <path d="M94.75,81.8v-7.84h1.2v7.84h-1.2Z" fill="#fff"/>
            <path d="M100.84,81.8v-6.73h-2.48v-1.11h6.17v1.11h-2.48v6.73h-1.2Z" fill="#fff"/>
            <path d="M106.72,81.8h-1.24l3.33-7.84h1.19l3.34,7.84h-1.26l-2.67-6.54-2.67,6.54Z" fill="#fff"/>
            <path d="M115.67,81.8v-7.84h1.2v6.73h3.93v1.11h-5.13Z" fill="#fff"/>
            <path d="M126.78,80.94l.43-1.01c.57.51,1.5.88,2.43.88,1.21,0,1.73-.48,1.73-1.11,0-1.79-4.42-.64-4.42-3.55,0-1.24.92-2.3,2.9-2.3.87,0,1.78.25,2.41.69l-.39,1.02c-.65-.42-1.38-.63-2.03-.63-1.19,0-1.7.52-1.7,1.15,0,1.78,4.42.64,4.42,3.52,0,1.23-.94,2.28-2.92,2.28-1.14,0-2.26-.39-2.86-.96Z" fill="#fff"/>
            <path d="M136.69,81.8v-6.73h-2.49v-1.11h6.17v1.11h-2.48v6.73h-1.2Z" fill="#fff"/>
            <path d="M142.58,78.4v-4.44h1.2v4.39c0,1.67.72,2.41,1.98,2.41s1.98-.74,1.98-2.41v-4.39h1.18v4.44c0,2.28-1.19,3.5-3.17,3.5s-3.17-1.22-3.17-3.5Z" fill="#fff"/>
            <path d="M153.48,77.88v2.81h1.9c1.74,0,2.85-1.12,2.85-2.81s-1.12-2.81-2.85-2.81h-3.1v-1.11h3.16c2.38,0,4,1.58,4,3.92s-1.62,3.92-4,3.92h-3.16v-3.92h1.2Z" fill="#fff"/>
            <path d="M162.28,81.8v-7.84h1.2v7.84h-1.2Z" fill="#fff"/>
            <path d="M166.33,77.88c0-2.31,1.67-4.02,3.95-4.02s3.94,1.7,3.94,4.02-1.67,4.02-3.94,4.02-3.95-1.71-3.95-4.02ZM173.01,77.88c0-1.66-1.16-2.88-2.73-2.88s-2.74,1.22-2.74,2.88,1.16,2.88,2.74,2.88,2.73-1.22,2.73-2.88Z" fill="#fff"/>
          </g>
        </g>
      </g>
      <g>
        <path d="M92.46,118.77h5.61v-5.64h4.73v5.64h5.64v4.73h-5.64v5.61h-4.73v-5.61h-5.61v-4.73Z" fill="#fff"/>
        <g>
          <path d="M40.03,146.13h1.5v1.02h-1.5v-1.02ZM40.03,147.63h1.5v3.93h-1.5v-3.93Z" fill="#fff"/>
          <path d="M42.55,146.13h1.51v5.42h-1.51v-5.42Z" fill="#fff"/>
          <path d="M45.07,146.13h1.51v5.42h-1.51v-5.42Z" fill="#fff"/>
          <path d="M51.68,151.55h-1.41v-.64c-.21.26-.42.45-.63.56-.21.11-.48.17-.79.17-.41,0-.74-.12-.97-.37s-.35-.63-.35-1.14v-2.5h1.51v2.16c0,.25.05.42.14.53.09.1.22.15.38.15.18,0,.33-.07.44-.21s.17-.39.17-.74v-1.89h1.5v3.93Z" fill="#fff"/>
          <path d="M52.33,150.46l1.49-.14c.06.18.15.3.26.38.11.08.26.12.44.12.2,0,.36-.04.47-.13.09-.06.13-.14.13-.24,0-.11-.06-.19-.17-.25-.08-.04-.3-.09-.65-.15-.52-.09-.89-.18-1.09-.25-.2-.08-.38-.21-.51-.39-.14-.19-.21-.39-.21-.63,0-.26.08-.48.23-.67s.36-.33.62-.42c.26-.09.62-.14,1.06-.14.47,0,.81.04,1.04.11.22.07.41.18.56.33.15.15.27.35.37.61l-1.43.14c-.04-.12-.1-.22-.18-.28-.12-.08-.26-.12-.43-.12s-.29.03-.37.09c-.08.06-.12.13-.12.22,0,.1.05.17.15.22s.31.09.64.13c.5.06.87.13,1.12.24s.43.25.56.43c.13.19.19.39.19.62s-.07.45-.21.66-.35.38-.65.51c-.29.13-.7.19-1.2.19-.72,0-1.23-.1-1.53-.31-.3-.21-.5-.5-.59-.87Z" fill="#fff"/>
          <path d="M59.04,146.13v1.49h.83v1.1h-.83v1.39c0,.17.02.28.05.33.05.08.14.12.26.12.11,0,.27-.03.47-.1l.11,1.04c-.37.08-.72.12-1.04.12-.37,0-.65-.05-.83-.14-.18-.1-.31-.24-.39-.44-.08-.2-.13-.51-.13-.95v-1.38h-.55v-1.1h.55v-.72l1.51-.77Z" fill="#fff"/>
          <path d="M60.6,147.63h1.41v.64c.14-.28.28-.47.42-.57.14-.11.32-.16.53-.16s.46.07.73.21l-.47,1.07c-.18-.07-.32-.11-.42-.11-.2,0-.35.08-.46.24-.16.23-.23.66-.23,1.29v1.32h-1.51v-3.93Z" fill="#fff"/>
          <path d="M65.45,148.9l-1.44-.15c.05-.25.13-.45.23-.59s.25-.27.44-.38c.14-.08.33-.14.57-.18.24-.04.5-.06.78-.06.45,0,.81.03,1.09.08s.5.16.68.32c.13.11.23.27.3.47.07.2.11.4.11.58v1.73c0,.19.01.33.04.43.02.11.07.24.15.4h-1.41c-.06-.1-.09-.18-.11-.23-.02-.05-.04-.13-.05-.25-.2.19-.39.32-.59.41-.27.11-.58.16-.93.16-.47,0-.82-.11-1.07-.32-.24-.22-.36-.48-.36-.8,0-.3.09-.54.26-.74.18-.19.5-.34.97-.43.57-.11.93-.19,1.1-.24s.35-.11.53-.18c0-.18-.04-.31-.12-.39-.08-.07-.21-.11-.4-.11-.25,0-.43.04-.55.12-.1.06-.17.18-.23.35ZM66.75,149.69c-.21.07-.42.14-.65.2-.31.08-.5.16-.58.24-.08.08-.12.17-.12.28,0,.12.04.21.12.29.08.07.2.11.36.11s.32-.04.47-.12c.14-.08.25-.18.31-.3s.09-.27.09-.46v-.24Z" fill="#fff"/>
          <path d="M70.81,146.13v1.49h.83v1.1h-.83v1.39c0,.17.02.28.05.33.05.08.14.12.26.12.11,0,.27-.03.47-.1l.11,1.04c-.37.08-.72.12-1.04.12-.37,0-.65-.05-.83-.14-.18-.1-.31-.24-.39-.44-.08-.2-.13-.51-.13-.95v-1.38h-.55v-1.1h.55v-.72l1.51-.77Z" fill="#fff"/>
          <path d="M72.17,149.6c0-.6.2-1.09.61-1.48.41-.39.95-.58,1.64-.58.79,0,1.38.23,1.78.69.32.37.48.82.48,1.36,0,.6-.2,1.1-.6,1.48-.4.38-.96.58-1.66.58-.63,0-1.14-.16-1.53-.48-.48-.4-.72-.92-.72-1.56ZM73.68,149.6c0,.35.07.61.21.78s.32.25.53.25.4-.08.54-.25c.14-.17.21-.43.21-.79,0-.34-.07-.59-.21-.76-.14-.17-.31-.25-.52-.25-.22,0-.4.08-.54.25-.14.17-.21.43-.21.77Z" fill="#fff"/>
          <path d="M77.43,147.63h1.41v.64c.14-.28.28-.47.42-.57.14-.11.32-.16.53-.16s.46.07.73.21l-.47,1.07c-.18-.07-.32-.11-.42-.11-.2,0-.35.08-.46.24-.16.23-.23.66-.23,1.29v1.32h-1.51v-3.93Z" fill="#fff"/>
        </g>
        <g>
          <path d="M118.48,146.19h2.74c.6,0,1.04.14,1.34.42s.45.69.45,1.21-.16.96-.49,1.26-.82.45-1.48.45h-.9v1.98h-1.65v-5.33ZM120.14,148.46h.4c.32,0,.54-.05.67-.17s.19-.25.19-.42-.06-.31-.17-.42-.32-.17-.63-.17h-.47v1.19Z" fill="#fff"/>
          <path d="M123.77,146.19h1.48v1.96c.2-.21.4-.36.6-.45.2-.09.43-.13.71-.13.4,0,.72.12.95.37.23.25.35.62.35,1.13v2.45h-1.49v-2.12c0-.24-.04-.41-.13-.51-.09-.1-.21-.15-.38-.15-.18,0-.32.07-.44.2s-.17.38-.17.73v1.85h-1.48v-5.33Z" fill="#fff"/>
          <path d="M128.55,149.6c0-.59.2-1.07.6-1.46.4-.38.93-.57,1.61-.57.77,0,1.36.22,1.75.67.32.36.48.81.48,1.33,0,.59-.2,1.08-.59,1.46s-.94.57-1.63.57c-.62,0-1.12-.16-1.5-.47-.47-.39-.7-.9-.7-1.53ZM130.03,149.6c0,.34.07.6.21.76.14.17.31.25.53.25s.39-.08.53-.24.21-.42.21-.78c0-.33-.07-.58-.21-.75-.14-.16-.31-.25-.51-.25-.22,0-.39.08-.53.25s-.21.42-.21.76Z" fill="#fff"/>
          <path d="M135.48,146.19v1.47h.81v1.08h-.81v1.37c0,.17.02.27.05.33.05.08.13.12.25.12.11,0,.26-.03.46-.09l.11,1.02c-.37.08-.71.12-1.03.12-.37,0-.64-.05-.81-.14-.17-.09-.3-.24-.39-.43-.08-.19-.13-.5-.13-.93v-1.36h-.54v-1.08h.54v-.71l1.48-.76Z" fill="#fff"/>
          <path d="M136.81,149.6c0-.59.2-1.07.6-1.46.4-.38.93-.57,1.61-.57.77,0,1.36.22,1.75.67.32.36.48.81.48,1.33,0,.59-.2,1.08-.59,1.46s-.94.57-1.63.57c-.62,0-1.12-.16-1.5-.47-.47-.39-.7-.9-.7-1.53ZM138.3,149.6c0,.34.07.6.21.76.14.17.31.25.53.25s.39-.08.53-.24.21-.42.21-.78c0-.33-.07-.58-.21-.75-.14-.16-.31-.25-.51-.25-.22,0-.39.08-.53.25s-.21.42-.21.76Z" fill="#fff"/>
          <path d="M141.7,150.45l1.47-.14c.06.17.15.3.25.37.11.08.25.11.44.11.2,0,.35-.04.46-.13.08-.06.13-.14.13-.24,0-.11-.06-.19-.17-.25-.08-.04-.29-.09-.64-.15-.51-.09-.87-.17-1.07-.25-.2-.08-.37-.21-.51-.39s-.21-.39-.21-.62c0-.25.07-.47.22-.66.15-.18.35-.32.61-.41.26-.09.61-.14,1.04-.14.46,0,.8.04,1.02.1.22.07.4.18.55.33.15.15.27.35.37.6l-1.4.14c-.04-.12-.1-.21-.18-.27-.12-.08-.26-.12-.42-.12s-.29.03-.37.09c-.08.06-.12.13-.12.22,0,.09.05.17.15.21.1.05.31.09.63.13.49.06.86.13,1.1.23.24.1.42.24.55.42s.19.39.19.61-.07.44-.2.65c-.13.21-.35.38-.64.5-.29.12-.68.19-1.18.19-.71,0-1.21-.1-1.51-.3-.3-.2-.49-.49-.58-.86Z" fill="#fff"/>
          <path d="M146.5,146.19h1.48v1.96c.2-.21.4-.36.6-.45.2-.09.43-.13.71-.13.4,0,.72.12.95.37.23.25.35.62.35,1.13v2.45h-1.49v-2.12c0-.24-.04-.41-.13-.51-.09-.1-.21-.15-.38-.15-.18,0-.32.07-.44.2s-.17.38-.17.73v1.85h-1.48v-5.33Z" fill="#fff"/>
          <path d="M151.29,149.6c0-.59.2-1.07.6-1.46.4-.38.93-.57,1.61-.57.77,0,1.36.22,1.75.67.32.36.48.81.48,1.33,0,.59-.2,1.08-.59,1.46s-.94.57-1.63.57c-.62,0-1.12-.16-1.5-.47-.47-.39-.7-.9-.7-1.53ZM152.77,149.6c0,.34.07.6.21.76.14.17.31.25.53.25s.39-.08.53-.24.21-.42.21-.78c0-.33-.07-.58-.21-.75-.14-.16-.31-.25-.51-.25-.22,0-.39.08-.53.25s-.21.42-.21.76Z" fill="#fff"/>
          <path d="M156.44,152.99v-5.33h1.38v.57c.19-.24.37-.4.53-.49.22-.11.45-.17.72-.17.52,0,.92.2,1.2.59s.42.88.42,1.46c0,.64-.15,1.13-.46,1.47s-.7.51-1.17.51c-.23,0-.44-.04-.62-.12-.19-.08-.36-.19-.5-.34v1.84h-1.49ZM157.92,149.6c0,.3.06.53.19.68.13.15.29.22.49.22.17,0,.32-.07.43-.21.12-.14.17-.38.17-.72,0-.31-.06-.54-.18-.69s-.27-.22-.44-.22c-.19,0-.35.07-.47.22s-.19.39-.19.72Z" fill="#fff"/>
        </g>
        <g clip-path="url(#clippath)">
          <g>
            <polyline points="168.44 151.37 109.93 151.37 109.93 92.86 168.44 92.86 168.44 151.37" fill="#fff"/>
            <path d="M115.74,135.11h0v-27.36c0-5.2,4.22-9.42,9.42-9.42h28.07c5.2,0,9.42,4.22,9.42,9.42v.03c0-5.19-4.21-9.4-9.4-9.4h-28.11c-5.19,0-9.4,4.21-9.4,9.4v27.33" fill="#fbfcfd"/>
            <path d="M115.74,135.18h0v-27.39c0-5.19,4.21-9.4,9.4-9.4h28.11c5.19,0,9.4,4.21,9.4,9.4h0v.03c0-5.18-4.2-9.38-9.38-9.38h-28.15c-5.18,0-9.38,4.2-9.38,9.38v27.36" fill="#fbfbfc"/>
            <path d="M115.74,135.24h0v-27.43c0-5.18,4.2-9.38,9.38-9.38h28.15c5.18,0,9.38,4.2,9.38,9.38h0v.03c0-5.17-4.19-9.36-9.36-9.36h-28.19c-5.17,0-9.36,4.19-9.36,9.36v27.4" fill="#fafafc"/>
            <path d="M115.74,135.31h0v-27.47c0-5.17,4.19-9.36,9.36-9.36h28.19c5.17,0,9.36,4.19,9.36,9.36h0v.03c0-5.16-4.18-9.33-9.33-9.33h-28.24c-5.16,0-9.33,4.18-9.33,9.33v27.44" fill="#fafbfb"/>
            <path d="M115.74,135.37h0v-27.51c0-5.16,4.18-9.33,9.33-9.33h28.24c5.16,0,9.33,4.18,9.33,9.33h0v.03c0-5.14-4.17-9.31-9.31-9.31h-28.28c-5.14,0-9.31,4.17-9.31,9.31v27.48" fill="#fafafb"/>
            <path d="M115.74,135.44h0v-27.54c0-5.14,4.17-9.31,9.31-9.31h28.28c5.14,0,9.31,4.17,9.31,9.31h0v.03c0-5.13-4.16-9.29-9.29-9.29h-28.32c-5.13,0-9.29,4.16-9.29,9.29v27.52" fill="#fafafb"/>
            <path d="M115.74,135.5h0v-27.58c0-5.13,4.16-9.29,9.29-9.29h28.32c5.13,0,9.29,4.16,9.29,9.29h0v.03c0-5.12-4.15-9.27-9.27-9.27h-28.37c-5.12,0-9.27,4.15-9.27,9.27v27.55" fill="#f9f9fa"/>
            <path d="M115.74,135.57h0v-27.62c0-5.12,4.15-9.27,9.27-9.27h28.37c5.12,0,9.27,4.15,9.27,9.27h0v.03c0-5.11-4.14-9.25-9.25-9.25h-28.41c-5.11,0-9.25,4.14-9.25,9.25v27.59" fill="#f8f8fa"/>
            <path d="M115.74,135.63h0v-27.66c0-5.11,4.14-9.25,9.25-9.25h28.41c5.11,0,9.25,4.14,9.25,9.25h0v.03c0-5.1-4.13-9.23-9.23-9.23h-28.45c-5.1,0-9.23,4.13-9.23,9.23v27.63" fill="#f7f8f9"/>
            <path d="M115.74,135.7h0v-27.69c0-5.1,4.13-9.23,9.23-9.23h28.45c5.1,0,9.23,4.13,9.23,9.23h0v.03c0-5.08-4.12-9.21-9.21-9.21h-28.49c-5.08,0-9.21,4.12-9.21,9.21v27.67" fill="#f7f8f9"/>
            <path d="M115.74,135.77h0v-27.73c0-5.08,4.12-9.21,9.21-9.21h28.49c5.08,0,9.21,4.12,9.21,9.21h0v.03c0-5.07-4.11-9.18-9.18-9.18h-28.54c-5.07,0-9.18,4.11-9.18,9.18v27.7" fill="#f7f7f8"/>
            <path d="M115.74,135.83h0v-27.77c0-5.07,4.11-9.18,9.18-9.18h28.54c5.07,0,9.18,4.11,9.18,9.18h0v.03c0-5.06-4.1-9.16-9.16-9.16h-28.58c-5.06,0-9.16,4.1-9.16,9.16v27.74" fill="#f6f7f7"/>
            <path d="M115.74,135.9h0v-27.81c0-5.06,4.1-9.16,9.16-9.16h28.58c5.06,0,9.16,4.1,9.16,9.16h0v.03c0-5.05-4.09-9.14-9.14-9.14h-28.62c-5.05,0-9.14,4.09-9.14,9.14v27.78" fill="#f6f6f7"/>
            <path d="M115.74,135.96h0v-27.84c0-5.05,4.09-9.14,9.14-9.14h28.62c5.05,0,9.14,4.09,9.14,9.14h0v.03c0-5.04-4.08-9.12-9.12-9.12h-28.67c-5.04,0-9.12,4.08-9.12,9.12v27.82" fill="#f6f6f7"/>
            <path d="M115.74,136.03h0v-27.88c0-5.04,4.08-9.12,9.12-9.12h28.67c5.04,0,9.12,4.08,9.12,9.12h0v.03c0-5.03-4.07-9.1-9.1-9.1h-28.71c-5.03,0-9.1,4.07-9.1,9.1v27.85" fill="#f5f5f6"/>
            <path d="M115.74,136.09h0v-27.92c0-5.03,4.07-9.1,9.1-9.1h28.71c5.03,0,9.1,4.07,9.1,9.1h0v.03c0-5.01-4.06-9.08-9.08-9.08h-28.75c-5.01,0-9.08,4.06-9.08,9.08v27.89" fill="#f5f5f6"/>
            <path d="M115.74,136.16h0v-27.96c0-5.01,4.06-9.08,9.08-9.08h28.75c5.01,0,9.08,4.06,9.08,9.08h0v.03c0-5-4.05-9.06-9.06-9.06h-28.79c-5,0-9.06,4.05-9.06,9.06v27.93" fill="#f5f5f6"/>
            <path d="M115.74,136.22h0v-27.99c0-5,4.05-9.06,9.06-9.06h28.79c5,0,9.06,4.05,9.06,9.06h0v.03c0-4.99-4.05-9.03-9.03-9.03h-28.84c-4.99,0-9.03,4.05-9.03,9.03v27.97" fill="#f4f5f6"/>
            <path d="M115.74,136.29h0v-28.03c0-4.99,4.05-9.03,9.03-9.03h28.84c4.99,0,9.03,4.05,9.03,9.03h0v.03c0-4.98-4.04-9.01-9.01-9.01h-28.88c-4.98,0-9.01,4.04-9.01,9.01v28" fill="#f4f4f5"/>
            <path d="M115.74,136.35h0v-28.07c0-4.98,4.04-9.01,9.01-9.01h28.88c4.98,0,9.01,4.04,9.01,9.01h0v.03c0-4.97-4.03-8.99-8.99-8.99h-28.92c-4.97,0-8.99,4.03-8.99,8.99v28.04" fill="#f4f4f5"/>
            <path d="M115.74,136.42h0v-28.11c0-4.97,4.03-8.99,8.99-8.99h28.92c4.97,0,8.99,4.03,8.99,8.99h0v.03c0-4.95-4.02-8.97-8.97-8.97h-28.97c-4.95,0-8.97,4.02-8.97,8.97v28.08" fill="#f3f3f4"/>
            <path d="M115.74,136.49h0v-28.14c0-4.95,4.02-8.97,8.97-8.97h28.97c4.95,0,8.97,4.02,8.97,8.97h0v.03c0-4.94-4.01-8.95-8.95-8.95h-29.01c-4.94,0-8.95,4.01-8.95,8.95v28.12" fill="#f3f3f4"/>
            <path d="M115.74,136.55h0v-28.18c0-4.94,4.01-8.95,8.95-8.95h29.01c4.94,0,8.95,4.01,8.95,8.95h0v.03c0-4.93-4-8.93-8.93-8.93h-29.05c-4.93,0-8.93,4-8.93,8.93v28.15" fill="#f3f3f4"/>
            <path d="M115.74,136.62h0v-28.22c0-4.93,4-8.93,8.93-8.93h29.05c4.93,0,8.93,4,8.93,8.93h0v.03c0-4.92-3.99-8.91-8.91-8.91h-29.09c-4.92,0-8.91,3.99-8.91,8.91v28.19" fill="#f3f3f4"/>
            <path d="M115.74,136.68h0v-28.26c0-4.92,3.99-8.91,8.91-8.91h29.09c4.92,0,8.91,3.99,8.91,8.91h0v.03c0-4.91-3.98-8.89-8.88-8.89h-29.14c-4.91,0-8.89,3.98-8.89,8.89v28.23" fill="#f3f3f4"/>
            <path d="M115.74,136.75h0v-28.3c0-4.91,3.98-8.89,8.89-8.89h29.14c4.91,0,8.88,3.98,8.88,8.89h0v.03c0-4.9-3.97-8.86-8.86-8.86h-29.18c-4.9,0-8.86,3.97-8.86,8.86v28.27" fill="#f3f3f4"/>
            <path d="M115.74,136.81h0v-28.33c0-4.9,3.97-8.86,8.86-8.86h29.18c4.9,0,8.86,3.97,8.86,8.86h0v.03c0-4.88-3.96-8.84-8.84-8.84h-29.22c-4.88,0-8.84,3.96-8.84,8.84v28.3" fill="#f2f3f4"/>
            <path d="M115.74,136.88h0v-28.37c0-4.88,3.96-8.84,8.84-8.84h29.22c4.88,0,8.84,3.96,8.84,8.84h0v.03c0-4.87-3.95-8.82-8.82-8.82h-29.27c-4.87,0-8.82,3.95-8.82,8.82v28.34" fill="#f2f3f4"/>
            <path d="M115.74,136.94h0v-28.41c0-4.87,3.95-8.82,8.82-8.82h29.27c4.87,0,8.82,3.95,8.82,8.82h0v.03c0-4.86-3.94-8.8-8.8-8.8h-29.31c-4.86,0-8.8,3.94-8.8,8.8v28.38" fill="#f2f3f4"/>
            <path d="M115.74,137.01h0v-28.45c0-4.86,3.94-8.8,8.8-8.8h29.31c4.86,0,8.8,3.94,8.8,8.8h0v.03c0-4.85-3.93-8.78-8.78-8.78h-29.35c-4.85,0-8.78,3.93-8.78,8.78v28.42" fill="#f2f3f4"/>
            <path d="M115.74,137.07h0v-28.48c0-4.85,3.93-8.78,8.78-8.78h29.35c4.85,0,8.78,3.93,8.78,8.78h0v.03c0-4.84-3.92-8.76-8.76-8.76h-29.39c-4.84,0-8.76,3.92-8.76,8.76v28.46" fill="#f2f3f4"/>
            <path d="M153.89,145.9h-29.39c-4.84,0-8.76-3.92-8.76-8.76v-28.52c0-4.84,3.92-8.76,8.76-8.76h29.39c4.84,0,8.76,3.92,8.76,8.76h0v28.52c0,4.84-3.92,8.76-8.76,8.76" fill="#f3f3f4"/>
            <path d="M154.01,143.58h-29.17c-4.51,0-8.17-3.66-8.17-8.17v-28.12c0-4.51,3.66-8.17,8.17-8.17h29.17c4.51,0,8.17,3.66,8.17,8.17v28.12c0,4.51-3.66,8.17-8.17,8.17h0Z" fill="#182332"/>
            <path d="M154.01,143.58v-.78h-29.17c-1.02,0-1.99-.21-2.88-.58-1.33-.56-2.46-1.5-3.26-2.68-.4-.59-.71-1.24-.93-1.94-.22-.69-.33-1.43-.33-2.2v-28.12c0-1.02.21-1.99.58-2.88.56-1.33,1.5-2.46,2.68-3.26.59-.4,1.24-.71,1.94-.93.69-.22,1.43-.33,2.2-.33h29.17c1.02,0,1.99.21,2.88.58,1.33.56,2.46,1.5,3.26,2.68.4.59.71,1.24.93,1.94.22.69.33,1.43.33,2.2v28.12c0,1.02-.21,1.99-.58,2.88-.56,1.33-1.5,2.46-2.68,3.26-.59.4-1.24.71-1.94.93-.69.22-1.43.33-2.2.33v1.55c1.23,0,2.41-.25,3.48-.7,1.61-.68,2.97-1.81,3.94-3.24.48-.71.86-1.5,1.13-2.34.26-.84.4-1.74.4-2.66v-28.12c0-1.23-.25-2.41-.7-3.48-.68-1.61-1.81-2.97-3.24-3.94-.71-.48-1.5-.86-2.34-1.13-.84-.26-1.74-.4-2.66-.4h-29.17c-1.23,0-2.41.25-3.48.7-1.61.68-2.97,1.81-3.94,3.24-.48.71-.86,1.5-1.13,2.34-.26.84-.4,1.74-.4,2.66h0v28.12c0,1.23.25,2.41.7,3.48.68,1.61,1.81,2.97,3.24,3.94.71.48,1.5.86,2.34,1.13.84.26,1.74.4,2.66.4h29.17v-.78h0Z" fill="#51a0d9"/>
            <path d="M136.26,119.58c-.58.58-1.38.94-2.27.94h-2.73v-6.41h2.73c1.77,0,3.21,1.44,3.21,3.21,0,.89-.36,1.69-.94,2.27h0ZM134.52,110.51h-7.42v19.77h4.16v-6.17h3.25c1.88,0,3.58-.76,4.81-1.99,1.23-1.23,1.99-2.93,1.99-4.81,0-3.75-3.04-6.8-6.8-6.8h0Z" fill="#5fa3d9"/>
            <path d="M154.31,125.85c0,1.31-.61,2.56-1.58,3.44-1.09.99-2.6,1.41-4.04,1.52-.17.01-.34.02-.52.02-1.6.03-3.28-.31-4.73-.98-.02,0-.03-.01-.05-.02,0-1.16,0-2.33,0-3.49,0,.06,1.15.34,1.3.39,1.32.43,2.89.76,4.28.58.29-.04.59-.11.82-.3.86-.71-.01-1.59-.71-1.93-.76-.37-1.57-.6-2.34-.93-.73-.31-1.43-.72-2.01-1.27-1.93-1.8-1.85-4.82.11-6.56,1.11-.99,2.62-1.3,4.07-1.37,1.5-.07,3.02.2,4.41.77.05.02.11.05.14.1.03.04.03.09.03.14,0,1.19,0,2.38,0,3.57-.23-.19-.54-.27-.8-.39-.29-.13-.59-.24-.89-.34-1.07-.34-2.46-.66-3.56-.28-.4.14-.71.43-.71.87,0,.69.68,1.03,1.23,1.28.69.31,1.42.5,2.11.82,1.78.83,3.43,2.24,3.43,4.36h0Z" fill="#5fa3d9"/>
          </g>
          <rect x="116.37" y="99.3" width="46.15" height="44" rx="6.98" ry="6.98" fill="none"/>
        </g>
        <g>
          <rect x="38.55" y="99.41" width="42.94" height="42.94" rx="9.84" ry="9.84" fill="#300"/>
          <g>
            <path d="M61.34,126h-8.32l-1.59,3.84h-4.25l7.99-17.92h4.09l8.01,17.92h-4.35l-1.59-3.84ZM60.04,122.85l-2.84-6.86-2.84,6.86h5.68Z" fill="#ff9a00"/>
            <path d="M69.43,114.85c-.37-.38-.55-.85-.55-1.41s.18-1.03.55-1.41c.37-.38.84-.57,1.43-.57s1.06.18,1.43.55c.37.36.55.82.55,1.37,0,.59-.18,1.08-.55,1.47-.37.39-.84.58-1.43.58s-1.06-.19-1.43-.57Z" fill="#ff9a00"/>
            <rect x="68.87" y="116.07" width="3.99" height="13.77" fill="#ff9a00"/>
          </g>
        </g>
      </g>
    </g>
  </g>
</svg>